<?xml version="1.0" standalone="no"?>
<!DOCTYPE svg PUBLIC "-//W3C//DTD SVG 20010904//EN"
 "http://www.w3.org/TR/2001/REC-SVG-20010904/DTD/svg10.dtd">
<svg version="1.0" xmlns="http://www.w3.org/2000/svg"
 width="678.000000pt" height="801.000000pt" viewBox="0 0 678.000000 801.000000"
 preserveAspectRatio="xMidYMid meet">
<metadata>
Created by potrace 1.10, written by Peter Selinger 2001-2011
</metadata>
<g transform="translate(0.000000,801.000000) scale(0.100000,-0.100000)"
fill="#000000" stroke="none">
<path d="M3635 7683 c-11 -3 -27 -11 -35 -18 -8 -7 -33 -18 -55 -24 -63 -16
-117 -87 -127 -165 -12 -98 -3 -128 56 -188 45 -46 59 -54 111 -64 33 -7 87
-25 120 -40 l60 -29 3 -52 c3 -51 2 -53 -31 -67 -19 -8 -38 -19 -41 -25 -11
-18 -71 -13 -99 9 -14 11 -29 20 -33 20 -4 0 -20 12 -35 26 -32 31 -66 28
-103 -9 -43 -43 -42 -127 1 -127 8 0 40 -12 71 -27 50 -24 69 -27 152 -27 97
0 103 2 183 52 53 34 95 116 103 201 6 63 5 70 -15 87 -13 11 -29 31 -37 47
-8 15 -19 27 -25 27 -6 0 -24 11 -39 24 -19 16 -48 26 -87 31 -33 4 -67 15
-78 25 -11 9 -32 20 -47 24 -33 8 -45 42 -31 89 7 27 15 34 53 43 56 13 116 1
150 -30 45 -43 63 -41 104 8 23 29 36 55 36 74 0 34 -13 48 -55 57 -17 4 -50
15 -75 25 -50 20 -124 31 -155 23z"/>
<path d="M3124 7644 c-8 -20 -13 -43 -9 -51 10 -28 17 -497 7 -524 -6 -15 -26
-32 -52 -44 -40 -18 -42 -18 -72 0 -31 18 -31 18 -54 -8 -32 -38 -41 -103 -17
-129 16 -19 27 -20 120 -16 117 5 132 13 215 112 l33 39 2 246 c0 135 4 271 7
302 4 36 2 66 -5 83 -12 25 -16 26 -86 26 l-74 0 -15 -36z"/>
<path d="M758 6390 c-32 -8 -34 -58 -8 -190 13 -64 25 -178 30 -290 9 -178 31
-393 51 -493 5 -27 9 -97 10 -155 1 -139 12 -271 37 -462 11 -85 23 -225 26
-310 4 -85 15 -213 26 -285 11 -71 25 -242 31 -380 7 -157 16 -259 24 -275 19
-38 24 -85 35 -348 7 -152 17 -264 26 -300 9 -33 21 -158 29 -302 13 -228 23
-331 45 -455 5 -27 12 -116 15 -196 6 -138 20 -298 44 -484 9 -70 29 -377 35
-550 2 -70 18 -104 49 -107 12 0 36 -2 52 -3 83 -4 163 -19 191 -36 17 -11 66
-22 115 -28 46 -6 117 -21 158 -35 41 -15 94 -26 118 -26 23 0 72 -11 109 -25
36 -14 77 -25 90 -25 42 0 188 -33 209 -46 11 -8 34 -14 52 -14 40 0 158 -25
242 -50 35 -11 81 -20 103 -20 22 0 54 -6 71 -14 31 -14 143 -39 223 -50 22
-3 62 -15 88 -26 26 -12 79 -24 119 -27 46 -3 89 -14 120 -29 69 -34 179 -34
225 0 25 18 51 25 113 30 45 4 107 16 138 27 31 11 90 25 131 31 41 5 92 19
113 30 23 12 78 24 136 30 57 6 108 18 126 28 17 10 57 21 90 25 79 8 189 32
233 50 19 8 52 15 73 15 21 0 73 12 115 26 42 14 121 31 176 38 77 10 104 18
123 36 13 12 29 19 35 15 18 -11 182 15 217 36 20 11 62 20 110 24 166 13 166
13 169 155 1 52 7 124 13 160 16 96 30 260 31 385 0 61 5 130 11 155 6 25 12
59 14 75 1 17 8 64 14 105 6 41 16 172 21 290 5 118 16 244 24 280 8 36 17
119 20 185 16 305 28 444 41 490 12 43 24 191 40 498 3 43 9 106 14 140 22
138 30 230 36 381 3 88 12 190 20 227 8 37 19 139 25 226 21 321 30 419 39
478 13 77 29 272 36 445 4 74 13 164 21 200 8 36 19 142 24 235 14 250 21 325
36 375 17 56 18 99 1 105 -17 7 -5340 11 -5369 5z m5194 -100 c83 0 84 -3 68
-230 -7 -102 -17 -196 -23 -210 -11 -27 -12 -36 -27 -290 -13 -214 -25 -332
-40 -385 -6 -22 -15 -146 -21 -275 -9 -231 -18 -336 -38 -455 -5 -33 -12 -96
-15 -140 -10 -155 -27 -341 -36 -395 -10 -63 -17 -166 -25 -365 -4 -77 -11
-160 -17 -185 -16 -71 -27 -183 -34 -340 -3 -80 -9 -168 -14 -197 -5 -29 -7
-74 -3 -101 3 -32 0 -69 -10 -103 -9 -30 -21 -119 -27 -199 -24 -303 -29 -358
-43 -455 -9 -55 -21 -199 -27 -320 -17 -319 -26 -426 -39 -458 -6 -16 -11 -52
-11 -80 0 -67 -21 -208 -33 -224 -5 -7 -28 -13 -52 -13 -84 0 -210 -21 -236
-40 -18 -13 -54 -21 -105 -26 -44 -4 -97 -15 -119 -25 -22 -11 -82 -24 -135
-30 -63 -7 -104 -17 -121 -29 -19 -13 -60 -22 -135 -30 -60 -7 -118 -17 -129
-24 -23 -14 -97 -32 -168 -41 -27 -4 -67 -13 -90 -21 -23 -9 -96 -26 -162 -39
-185 -36 -273 -58 -336 -80 -51 -19 -308 -57 -338 -50 -14 3 -71 10 -126 15
-73 7 -113 16 -149 35 -30 15 -66 25 -91 25 -23 0 -68 9 -101 21 -32 12 -93
25 -135 29 -99 10 -139 19 -166 36 -12 8 -55 19 -95 25 -40 5 -102 19 -138 29
-88 26 -135 37 -198 44 -29 4 -70 15 -90 25 -21 10 -84 24 -147 31 -72 8 -121
19 -141 31 -18 11 -60 21 -105 25 -41 4 -94 15 -118 25 -24 11 -85 28 -135 38
-97 20 -162 46 -170 68 -3 7 -1 34 4 61 8 41 6 51 -15 82 -21 32 -23 43 -19
116 3 44 0 116 -6 160 -6 43 -15 160 -20 259 -5 109 -15 199 -24 228 -10 31
-17 108 -21 230 -6 196 -22 364 -36 373 -5 3 -9 24 -9 47 0 23 -4 98 -10 167
-16 209 -33 442 -36 495 -1 28 -7 77 -13 110 -7 33 -16 148 -21 255 -6 138
-14 219 -28 275 -14 54 -22 132 -27 240 -3 88 -10 192 -16 230 -19 145 -39
358 -37 403 2 78 -13 253 -27 317 -8 33 -22 191 -30 350 -10 172 -22 311 -30
341 -15 52 -22 131 -30 339 -3 66 -8 151 -10 188 -3 38 -2 74 4 80 7 9 634 11
2528 10 1385 -1 2544 -2 2575 -3z"/>
<path d="M3585 6210 c-4 -6 6 -10 24 -10 16 0 33 5 36 10 4 6 -6 10 -24 10
-16 0 -33 -4 -36 -10z"/>
<path d="M3685 6210 c4 -7 325 -10 931 -10 609 0 924 3 924 10 0 7 -317 10
-931 10 -617 0 -928 -3 -924 -10z"/>
<path d="M5630 6210 c0 -5 14 -10 30 -10 17 0 30 5 30 10 0 6 -13 10 -30 10
-16 0 -30 -4 -30 -10z"/>
<path d="M2533 5526 c-35 -11 -62 -24 -60 -30 6 -19 78 -25 342 -25 143 0 286
-1 317 -1 31 -1 66 4 78 10 21 11 27 35 11 44 -19 12 -143 18 -380 20 -213 1
-251 -1 -308 -18z"/>
<path d="M5099 5545 c-3 -2 -312 -5 -687 -6 -656 -2 -682 -3 -699 -21 -15 -17
-15 -20 -3 -28 8 -5 33 -12 55 -15 62 -9 1538 -1 1558 9 26 12 15 30 -24 38
-19 3 -52 11 -74 17 -41 11 -118 15 -126 6z"/>
<path d="M3652 5423 c-10 -19 -20 -521 -27 -1376 -3 -268 -9 -504 -14 -525
-13 -52 -12 -398 1 -431 6 -14 12 -52 12 -85 1 -45 5 -61 19 -70 13 -8 20 -8
26 3 13 21 21 313 26 1041 3 371 8 824 11 1007 5 242 3 346 -6 382 -14 59 -34
81 -48 54z"/>
<path d="M2419 5404 c-5 -16 -9 -649 -9 -1637 0 -1443 -2 -1615 -16 -1635 -20
-29 -35 -28 -64 3 -18 19 -33 25 -55 23 -27 -3 -30 -7 -33 -39 -5 -55 27 -89
86 -89 34 0 56 -7 85 -27 31 -22 43 -25 65 -17 31 11 40 49 23 93 -8 18 -12
512 -14 1666 -1 902 -6 1647 -10 1657 -15 28 -47 30 -58 2z"/>
<path d="M3199 5388 c-11 -27 -14 -401 -16 -2101 -3 -2031 -2 -2070 17 -2125
l19 -57 -25 -22 c-33 -30 -54 -29 -107 7 -30 20 -57 30 -81 30 -20 0 -53 7
-73 15 -19 8 -47 15 -62 15 -14 0 -44 9 -66 19 -22 10 -76 21 -119 25 -43 4
-111 18 -150 31 -39 13 -96 26 -126 30 -50 5 -89 14 -205 44 -23 6 -76 17
-119 25 -43 9 -84 20 -91 26 -18 15 -198 34 -241 26 -42 -8 -43 -17 -3 -50 25
-21 41 -26 88 -26 31 0 65 -6 76 -14 22 -15 93 -32 175 -42 30 -3 68 -16 84
-27 22 -15 53 -22 120 -28 50 -4 111 -14 136 -23 85 -31 145 -44 218 -45 49
-1 86 -7 110 -20 20 -10 57 -21 81 -25 24 -4 57 -14 75 -23 36 -20 77 -25 204
-27 151 -2 151 -1 153 414 1 140 -1 289 -2 330 -2 41 -3 113 -3 160 4 342 3
3474 -2 3481 -3 5 -16 9 -29 9 -17 0 -27 -9 -36 -32z"/>
<path d="M5387 5383 c-15 -29 -41 -248 -52 -428 -5 -93 -4 -102 15 -123 12
-12 25 -20 30 -17 18 11 30 81 30 171 0 50 8 133 17 185 10 52 18 126 18 164
0 64 -2 70 -22 73 -16 2 -26 -5 -36 -25z"/>
<path d="M4401 4756 c-10 -12 -10 -23 -1 -50 13 -42 3 -840 -11 -868 -14 -26
-10 -65 8 -83 17 -17 28 -17 108 4 22 5 148 15 280 21 132 6 254 13 272 16 30
4 103 58 103 76 0 13 -127 9 -215 -6 -44 -8 -162 -17 -261 -21 -176 -7 -182
-7 -196 13 -12 18 -14 81 -11 389 2 202 4 378 4 389 -1 47 10 49 388 55 196 4
385 10 421 13 73 7 102 25 80 51 -8 9 -20 13 -29 9 -18 -7 -706 -6 -842 2 -69
4 -88 2 -98 -10z"/>
<path d="M5215 3693 c-27 -54 -42 -195 -59 -529 -2 -41 -10 -82 -19 -95 -11
-18 -17 -72 -22 -229 -4 -113 -13 -248 -21 -300 -22 -141 -32 -248 -40 -410
-3 -80 -15 -188 -26 -240 -15 -73 -20 -145 -23 -312 -3 -204 -2 -217 14 -208
10 5 22 15 28 22 11 14 24 113 28 213 2 33 6 74 9 90 12 69 28 222 41 405 8
107 22 245 30 305 8 61 20 198 25 305 13 232 23 334 38 375 6 17 16 124 22
240 6 115 16 215 22 222 13 16 23 123 14 157 -10 39 -39 33 -61 -11z"/>
<path d="M4311 2934 c-22 -10 -47 -13 -68 -9 -18 3 -41 2 -50 -3 -10 -5 -110
-15 -223 -21 -243 -14 -260 -17 -260 -41 0 -39 17 -41 261 -30 129 6 248 13
265 16 41 8 69 -18 58 -55 -4 -14 -7 -36 -6 -48 3 -39 2 -54 -8 -188 -5 -71
-10 -150 -11 -175 -2 -25 -7 -51 -13 -59 -6 -7 -9 -28 -7 -46 1 -18 -8 -62
-20 -98 -16 -47 -20 -72 -13 -93 4 -16 8 -32 8 -35 1 -4 -19 -23 -42 -43 -34
-28 -53 -36 -83 -36 -22 0 -50 -6 -62 -14 -12 -8 -62 -22 -112 -31 -49 -9
-107 -26 -127 -36 -20 -10 -56 -19 -79 -19 -40 0 -41 -1 -34 -27 12 -49 52
-56 134 -23 27 10 73 22 103 26 29 4 76 17 103 29 50 22 123 36 203 39 61 2
75 23 67 101 -4 39 -1 79 9 115 8 30 14 71 14 91 0 20 5 77 11 125 6 49 13
127 16 174 6 107 19 198 40 277 9 35 15 82 13 105 -3 38 -6 43 -28 45 -14 1
-40 -5 -59 -13z"/>
<path d="M1770 2383 c-90 -13 -95 -34 -12 -58 31 -9 66 -25 77 -35 11 -10 43
-21 70 -25 28 -4 70 -16 95 -27 42 -19 179 -48 225 -47 11 0 29 6 39 14 28 21
12 33 -65 50 -35 8 -77 21 -94 29 -71 34 -104 46 -161 59 -33 8 -69 19 -80 24
-27 14 -64 20 -94 16z"/>
<path d="M1620 2345 c-19 -23 -33 -86 -32 -145 1 -104 21 -335 31 -368 14 -45
26 -200 22 -289 -2 -56 2 -80 19 -112 55 -109 72 2 50 319 -5 74 -13 182 -16
240 -4 70 -16 138 -34 202 -29 97 -30 132 -3 142 16 7 8 26 -11 26 -8 0 -19
-7 -26 -15z"/>
<path d="M3368 2034 c-5 -4 -8 -28 -8 -53 0 -32 3 -42 11 -34 5 5 9 29 7 53
-2 23 -6 38 -10 34z"/>
<path d="M5481 1792 c-13 -84 -13 -95 2 -109 15 -15 17 -15 23 0 3 9 2 59 -3
109 l-8 93 -14 -93z"/>
<path d="M3588 1783 c-16 -38 -22 -597 -7 -635 13 -31 29 -28 29 5 0 12 7 31
15 41 12 16 15 62 14 250 -1 263 -8 358 -26 364 -7 2 -18 -9 -25 -25z"/>
<path d="M4830 1375 c-36 -7 -78 -17 -95 -23 -46 -16 -122 -32 -153 -32 -16 0
-55 -9 -88 -19 -80 -25 -145 -40 -231 -50 -48 -6 -81 -16 -99 -30 -18 -14 -41
-21 -73 -21 -49 0 -168 -25 -185 -39 -11 -8 -37 -14 -126 -29 -72 -12 -84 -26
-53 -57 21 -21 96 -15 228 20 50 13 113 27 140 31 28 4 59 13 70 20 21 13 180
44 229 44 17 0 46 11 65 24 30 20 57 27 156 36 97 9 127 16 155 35 25 17 56
25 110 30 68 6 110 24 110 45 0 7 -70 31 -86 29 -5 0 -38 -7 -74 -14z"/>
<path d="M3367 1183 c-9 -14 4 -54 16 -50 6 2 12 8 14 13 5 14 -23 49 -30 37z"/>
<path d="M5068 999 c-22 -14 20 -22 55 -12 l32 10 -38 4 c-20 3 -43 2 -49 -2z"/>
<path d="M3360 925 c0 -14 5 -25 10 -25 6 0 10 11 10 25 0 14 -4 25 -10 25 -5
0 -10 -11 -10 -25z"/>
<path d="M4872 943 c-43 -6 -31 -23 16 -23 45 0 72 14 47 24 -9 3 -20 5 -23 4
-4 0 -22 -3 -40 -5z"/>
<path d="M4642 883 c-21 -8 -2 -23 31 -23 44 0 66 15 35 23 -26 8 -48 8 -66 0z"/>
<path d="M4375 832 c-46 -11 -36 -27 20 -30 47 -2 86 10 74 22 -10 10 -64 14
-94 8z"/>
<path d="M4112 763 c-20 -8 -3 -23 28 -23 33 0 48 15 24 24 -18 7 -33 7 -52
-1z"/>
<path d="M3607 653 c-16 -15 -5 -23 33 -23 22 0 40 4 40 9 0 17 -59 29 -73 14z"/>
</g>
</svg>
